<?xml version="1.0" encoding="UTF-8"?>
<svg version="1.1" xmlns="http://www.w3.org/2000/svg" width="280" height="280">
<path d="M0 0 C1.12100098 0.00918457 1.12100098 0.00918457 2.26464844 0.01855469 C8.09101502 0.18342793 12.68354564 1.21432409 17.625 4.4375 C18.98625 5.2728125 18.98625 5.2728125 20.375 6.125 C25.56629112 11.46049365 28.32785256 17.4000423 28.68359375 24.84765625 C28.45060142 35.14591715 24.80619648 42.72366956 19.625 51.4375 C18.965 51.4375 18.305 51.4375 17.625 51.4375 C17.625 52.4275 17.625 53.4175 17.625 54.4375 C18.429375 54.64375 19.23375 54.85 20.0625 55.0625 C22.625 56.4375 22.625 56.4375 23.625 59.3125 C23.625 62.4375 23.625 62.4375 22.625 64.8125 C20.625 66.4375 20.625 66.4375 17.25 66.8125 C13.93993273 66.47007925 11.59635509 65.87815701 8.625 64.4375 C9.615 66.7475 10.605 69.0575 11.625 71.4375 C7.995 71.4375 4.365 71.4375 0.625 71.4375 C1.553125 73.3865625 1.553125 73.3865625 2.5 75.375 C2.84804687 76.10589844 3.19609375 76.83679688 3.5546875 77.58984375 C4.4934977 79.60082459 4.4934977 79.60082459 6.625 80.4375 C8.35517332 80.56700345 10.08975512 80.63992708 11.82421875 80.68359375 C13.39139648 80.73290039 13.39139648 80.73290039 14.99023438 80.78320312 C17.1854565 80.84385888 19.38077267 80.90121136 21.57617188 80.95507812 C27.27040349 81.14011447 32.24057853 81.53485035 37.625 83.4375 C37.625 84.0975 37.625 84.7575 37.625 85.4375 C39.11 85.9325 39.11 85.9325 40.625 86.4375 C41.87141887 88.93033774 41.77896235 90.66090813 41.81787109 93.45043945 C41.83393402 94.49524979 41.84999695 95.54006012 41.86654663 96.61653137 C41.91093806 101.39693606 41.9520588 106.17720116 41.97509766 110.95776367 C41.99166456 113.48064392 42.01896384 116.00347709 42.05712891 118.52612305 C42.11183189 122.1595907 42.13376249 125.79195753 42.1484375 129.42578125 C42.18244156 131.1166259 42.18244156 131.1166259 42.21713257 132.84162903 C42.19593883 140.68147788 42.19593883 140.68147788 39.21728516 144.62573242 C35.66783702 147.1064684 33.99280606 147.56155864 29.71630859 147.55102539 C28.69540131 147.55094986 27.67449402 147.55087433 26.62265015 147.55079651 C24.96478989 147.54305458 24.96478989 147.54305458 23.2734375 147.53515625 C21.57968491 147.53303383 21.57968491 147.53303383 19.85171509 147.53086853 C16.23445012 147.52525744 12.61724636 147.51270303 9 147.5 C6.55208423 147.49498643 4.10416748 147.49042328 1.65625 147.48632812 C-4.35418766 147.4752844 -10.36458946 147.45853544 -16.375 147.4375 C-12.93853911 144.61831997 -9.79395003 142.54052292 -5.75 140.6875 C5.4741547 135.18573375 15.18021799 127.93806963 21.625 117.0625 C23.70258276 109.5312625 23.54556404 102.91179618 19.79296875 95.99609375 C18.53472909 94.13667614 18.53472909 94.13667614 15.625 92.4375 C15.97433594 92.98019531 16.32367188 93.52289063 16.68359375 94.08203125 C17.13863281 94.79746094 17.59367187 95.51289063 18.0625 96.25 C18.51496094 96.95769531 18.96742188 97.66539062 19.43359375 98.39453125 C21.88588449 102.59960685 22.09995046 106.68799543 21.625 111.4375 C16.7827241 126.50235836 3.85983831 134.50191085 -9.40917969 141.43017578 C-24.52388462 149.17524192 -24.52388462 149.17524192 -33.375 147.4375 C-36.71567769 145.62796625 -37.95889332 144.38239553 -39.48120117 140.92553711 C-40.66145358 136.31961902 -40.68041598 131.99026367 -40.67578125 127.25390625 C-40.68006638 126.28017563 -40.6843515 125.30644501 -40.68876648 124.3032074 C-40.69449317 122.24991633 -40.69502232 120.19660499 -40.69067383 118.14331055 C-40.68751394 115.0138059 -40.71099393 111.88524733 -40.73632812 108.75585938 C-40.7386014 106.75520952 -40.73930448 104.75455714 -40.73828125 102.75390625 C-40.747491 101.82453751 -40.75670074 100.89516876 -40.76618958 99.93763733 C-40.72657275 94.33398566 -40.04144798 90.39610764 -37.375 85.4375 C-33.05776542 81.25953106 -28.43237799 81.29891073 -22.640625 81.12109375 C-21.34511719 81.07919922 -20.04960937 81.03730469 -18.71484375 80.99414062 C-17.35156524 80.95433329 -15.98828394 80.91462094 -14.625 80.875 C-13.24608125 80.83177726 -11.86717474 80.78816179 -10.48828125 80.74414062 C-7.1172881 80.63806042 -3.74622174 80.5360015 -0.375 80.4375 C-0.94696666 79.11769256 -1.53948437 77.80677752 -2.140625 76.5 C-2.46836914 75.76910156 -2.79611328 75.03820312 -3.13378906 74.28515625 C-4.37724951 71.99615227 -4.37724951 71.99615227 -8.125 71.4375 C-9.1975 71.4375 -10.27 71.4375 -11.375 71.4375 C-11.045 70.1175 -10.715 68.7975 -10.375 67.4375 C-11.51388672 67.36402344 -11.51388672 67.36402344 -12.67578125 67.2890625 C-13.66964844 67.21429688 -14.66351563 67.13953125 -15.6875 67.0625 C-16.67363281 66.99289063 -17.65976563 66.92328125 -18.67578125 66.8515625 C-21.375 66.4375 -21.375 66.4375 -24.375 64.4375 C-24.80829266 61.6210977 -24.84797299 60.10961951 -23.1875 57.75 C-21.03954233 56.19458238 -18.84220003 55.38642309 -16.375 54.4375 C-16.84550781 53.82003906 -17.31601563 53.20257813 -17.80078125 52.56640625 C-24.28099575 43.75170454 -26.60199434 37.22871609 -26.8125 26.375 C-26.83497803 25.61896484 -26.85745605 24.86292969 -26.88061523 24.08398438 C-26.85282877 17.53492835 -24.93137644 12.47058999 -20.69921875 7.44921875 C-20.15910156 7.01222656 -19.61898437 6.57523438 -19.0625 6.125 C-18.53011719 5.67511719 -17.99773437 5.22523437 -17.44921875 4.76171875 C-11.63599255 1.05045004 -6.78842244 -0.09466536 0 0 Z M-17.375 10.4375 C-22.35917118 16.13755484 -23.56123865 21.97699866 -23.375 29.4375 C-22.38288776 38.92348549 -16.92327861 48.90018756 -9.57421875 54.91015625 C-6.31628474 57.55112242 -6.31628474 57.55112242 -2.375 58.4375 C-3.035 61.4075 -3.695 64.3775 -4.375 67.4375 C-1.405 67.4375 1.565 67.4375 4.625 67.4375 C3.35525028 63.02227891 3.35525028 63.02227891 0.625 59.4375 C1.51251953 58.96570313 1.51251953 58.96570313 2.41796875 58.484375 C12.01434861 53.28698819 18.44355884 47.57734693 22.5 37.1875 C24.5714773 30.1047842 25.07167304 21.79893336 22.0625 14.9375 C18.09647787 8.37352609 12.17766496 5.97748779 5.0546875 3.91796875 C-3.04567179 2.31612921 -11.13475587 5.19002198 -17.375 10.4375 Z M10.625 60.4375 C14.13533129 62.12380119 14.13533129 62.12380119 17.9375 62.0625 C18.494375 61.85625 19.05125 61.65 19.625 61.4375 C19.625 60.7775 19.625 60.1175 19.625 59.4375 C15.84602349 58.3877843 13.97580929 58.32773119 10.625 60.4375 Z M-19.375 60.4375 C-19.375 61.0975 -19.375 61.7575 -19.375 62.4375 C-16.735 62.4375 -14.095 62.4375 -11.375 62.4375 C-11.375 61.7775 -11.375 61.1175 -11.375 60.4375 C-14.015 60.4375 -16.655 60.4375 -19.375 60.4375 Z M6.625 83.4375 C8.275 85.4175 9.925 87.3975 11.625 89.4375 C12.285 89.1075 12.945 88.7775 13.625 88.4375 C12.00160195 86.72865995 10.33180947 85.06303283 8.625 83.4375 C7.965 83.4375 7.305 83.4375 6.625 83.4375 Z " fill="#AF2E1D" transform="translate(238.375,51.5625)"/>
<path d="M0 0 C1.31864548 -0.01929062 2.63729095 -0.03858124 3.99589539 -0.05845642 C5.44362405 -0.07326548 6.89136364 -0.08703861 8.33911133 -0.09985352 C9.06772181 -0.10642534 9.79633228 -0.11299717 10.54702187 -0.11976814 C14.40649092 -0.15236986 18.26593234 -0.17681432 22.12548828 -0.19628906 C25.31405053 -0.2140764 28.50172402 -0.24885119 31.68994141 -0.29882812 C35.54381301 -0.35916697 39.39686301 -0.38978349 43.25118446 -0.39946175 C44.71639882 -0.40799759 46.18159234 -0.42676999 47.64653587 -0.45620537 C60.53215636 -0.70109974 60.53215636 -0.70109974 65.12548828 2.99755859 C68.05361627 5.95238711 68.66643573 8.69000995 68.84716797 12.77416992 C68.83931274 14.18811035 68.83931274 14.18811035 68.83129883 15.63061523 C68.82646484 17.16782227 68.82646484 17.16782227 68.8215332 18.73608398 C68.80896484 20.33129883 68.80896484 20.33129883 68.79614258 21.95874023 C68.79163086 23.03768555 68.78711914 24.11663086 68.7824707 25.22827148 C68.77069985 27.88848406 68.75425657 30.54858388 68.73364258 33.20874023 C69.33692383 33.48331055 69.94020508 33.75788086 70.56176758 34.04077148 C73.75514818 35.75807508 75.95178792 38.09226934 77.73364258 41.20874023 C78.15264506 44.6804751 78.35934708 47.02843401 76.70239258 50.15405273 C75.58803432 52.51757064 75.61499237 53.87618854 75.79614258 56.45874023 C75.8886692 62.09361175 74.98455574 66.76093869 71.08129883 71.00561523 C64.2965049 77.03016799 57.33450747 76.68017896 48.66430664 76.36694336 C45.38960649 76.09860678 42.52848822 75.16011355 39.53051758 73.86499023 C37.42625922 72.98003732 37.42625922 72.98003732 33.73364258 73.20874023 C35.15676758 73.51811523 35.15676758 73.51811523 36.60864258 73.83374023 C39.73364258 75.20874023 39.73364258 75.20874023 41.29614258 78.02124023 C41.73364258 81.20874023 41.73364258 81.20874023 40.92114258 84.08374023 C37.95504231 86.96509478 35.89300315 86.73086504 31.88989258 86.67749023 C29.26073834 86.10593497 28.32094676 85.36041924 26.73364258 83.20874023 C26.54614258 80.02124023 26.54614258 80.02124023 26.73364258 77.20874023 C25.97438477 77.09916992 25.21512695 76.98959961 24.43286133 76.87670898 C23.43899414 76.7181543 22.44512695 76.55959961 21.42114258 76.39624023 C19.94194336 76.17000977 19.94194336 76.17000977 18.43286133 75.93920898 C15.53184255 75.15412865 14.68910644 74.38147785 12.73364258 72.20874023 C11.21770508 71.74467773 11.21770508 71.74467773 9.67114258 71.27124023 C6.73364258 70.20874023 6.73364258 70.20874023 5.55004883 68.14233398 C5.28063477 67.50424805 5.0112207 66.86616211 4.73364258 66.20874023 C4.08137695 66.25514648 3.42911133 66.30155273 2.75708008 66.34936523 C-3.16173904 66.59380024 -6.61517515 66.27852472 -11.26635742 62.20874023 C-13.43944567 58.94910786 -13.52802913 57.96898381 -13.57275391 54.18994141 C-13.5887413 53.16845505 -13.6047287 52.14696869 -13.62120056 51.0945282 C-13.62656326 49.99139786 -13.63192596 48.88826752 -13.63745117 47.75170898 C-13.64647964 46.61598953 -13.65550812 45.48027008 -13.66481018 44.31013489 C-13.67932796 41.90518841 -13.68820319 39.5002023 -13.69189453 37.09521484 C-13.70377803 33.42078777 -13.75294122 29.7480465 -13.8034668 26.07397461 C-13.81293231 23.73739427 -13.82016673 21.4008036 -13.82495117 19.06420898 C-13.84448349 17.96715134 -13.86401581 16.87009369 -13.88414001 15.73979187 C-13.8339 7.21776232 -13.8339 7.21776232 -10.85644531 3.53027344 C-7.01413435 0.0863546 -5.09244363 0.06941809 0 0 Z M8.73364258 26.20874023 C8.11489258 26.60061523 7.49614258 26.99249023 6.85864258 27.39624023 C5.37547201 29.40298099 5.37547201 29.40298099 5.92114258 33.08374023 C6.02270508 35.22827148 6.02270508 35.22827148 5.73364258 37.20874023 C3.77178842 38.92014493 1.77061875 40.58747349 -0.26635742 42.20874023 C-1.23473884 45.88799008 -1.23473884 45.88799008 -1.26635742 49.20874023 C2.40344462 52.12045812 2.40344462 52.12045812 6.73364258 53.20874023 C6.40364258 53.70374023 6.07364258 54.19874023 5.73364258 54.70874023 C4.297279 58.29964918 4.60512795 61.35330151 4.73364258 65.20874023 C5.39364258 65.20874023 6.05364258 65.20874023 6.73364258 65.20874023 C6.86641602 64.51006836 6.99918945 63.81139648 7.13598633 63.09155273 C7.40088867 61.72643555 7.40088867 61.72643555 7.67114258 60.33374023 C7.93217773 58.97635742 7.93217773 58.97635742 8.19848633 57.59155273 C8.73364258 55.20874023 8.73364258 55.20874023 9.73364258 53.20874023 C7.09364258 51.55874023 4.45364258 49.90874023 1.73364258 48.20874023 C1.85864258 45.95874023 1.85864258 45.95874023 2.73364258 43.20874023 C3.74426758 42.63124023 4.75489258 42.05374023 5.79614258 41.45874023 C6.76551758 40.71624023 7.73489258 39.97374023 8.73364258 39.20874023 C8.97890785 37.05311511 8.97890785 37.05311511 8.73364258 34.70874023 C8.57348633 32.33764648 8.57348633 32.33764648 8.73364258 30.20874023 C11.89212255 27.05026027 13.95530001 26.31609783 18.35864258 25.70874023 C22.27980277 26.28965286 23.3143752 27.16225539 25.73364258 30.20874023 C26.39364258 30.86874023 27.05364258 31.52874023 27.73364258 32.20874023 C28.29051758 31.85811523 28.84739258 31.50749023 29.42114258 31.14624023 C32.33249421 29.96596254 33.76358247 30.29487559 36.73364258 31.20874023 C37.72364258 31.86874023 38.71364258 32.52874023 39.73364258 33.20874023 C40.06364258 32.54874023 40.39364258 31.88874023 40.73364258 31.20874023 C39.6462097 29.08951896 39.6462097 29.08951896 37.73364258 27.20874023 C34.71297522 26.88739264 32.47915141 26.94561947 29.60864258 27.95874023 C28.68051758 28.08249023 28.68051758 28.08249023 27.73364258 28.20874023 C27.17676758 27.58999023 26.61989258 26.97124023 26.04614258 26.33374023 C23.07103226 23.59985508 20.93235787 23.38253918 16.98364258 23.10327148 C13.65216951 23.25943428 11.48049915 24.37750252 8.73364258 26.20874023 Z M40.73364258 30.20874023 C41.72364258 30.70374023 41.72364258 30.70374023 42.73364258 31.20874023 C44.0708776 30.54993472 45.40373042 29.88220581 46.73364258 29.20874023 C53.18312908 28.25919824 58.7743205 29.84191728 64.73364258 32.20874023 C60.73968581 27.80799158 55.89798395 26.46995385 50.10864258 25.77124023 C46.07322936 26.29434936 43.91045719 27.72927517 40.73364258 30.20874023 Z M64.73364258 32.20874023 C65.72364258 33.19874023 66.71364258 34.18874023 67.73364258 35.20874023 C67.40364258 34.21874023 67.07364258 33.22874023 66.73364258 32.20874023 C66.07364258 32.20874023 65.41364258 32.20874023 64.73364258 32.20874023 Z M68.73364258 38.20874023 C68.69625977 39.43850586 68.65887695 40.66827148 68.62036133 41.93530273 C68.5546723 43.56814425 68.48822599 45.20095541 68.42114258 46.83374023 C68.39858398 47.64198242 68.37602539 48.45022461 68.3527832 49.28295898 C68.13081285 54.2470233 67.60606075 57.98571485 64.73364258 62.20874023 C59.93949186 66.33079645 54.29529706 65.68463177 48.30786133 65.72045898 C47.20513382 65.73841019 46.10240631 65.75636139 44.96626282 65.77485657 C41.45126139 65.82895028 37.93639571 65.86285314 34.42114258 65.89624023 C32.03505599 65.92941404 29.6489873 65.96390375 27.26293945 65.99975586 C21.41996222 66.0846763 15.57696739 66.15303032 9.73364258 66.20874023 C12.54874251 68.48609033 12.54874251 68.48609033 15.73364258 68.20874023 C15.73364258 68.86874023 15.73364258 69.52874023 15.73364258 70.20874023 C18.84350465 72.28198161 19.62472645 72.4826621 23.17114258 72.45874023 C23.93297852 72.46389648 24.69481445 72.46905273 25.47973633 72.47436523 C27.94807276 72.18346943 29.59132858 71.43849679 31.73364258 70.20874023 C31.73364258 69.54874023 31.73364258 68.88874023 31.73364258 68.20874023 C36.81833749 67.68723306 40.12621262 69.05352452 44.58520508 71.23608398 C50.4890179 73.90890106 56.87335033 74.1988414 62.98364258 72.08374023 C67.02306776 69.3295867 70.1235739 66.79256052 71.26489258 61.95874023 C71.69202354 58.35185656 71.73364258 54.84290419 71.73364258 51.20874023 C72.39364258 50.21874023 73.05364258 49.22874023 73.73364258 48.20874023 C74.31709733 45.25127531 74.31709733 45.25127531 73.73364258 42.20874023 C71.27052648 40.01198704 71.27052648 40.01198704 68.73364258 38.20874023 Z M31.73364258 78.20874023 C31.73364258 79.52874023 31.73364258 80.84874023 31.73364258 82.20874023 C33.71364258 82.70374023 33.71364258 82.70374023 35.73364258 83.20874023 C36.39364258 81.88874023 37.05364258 80.56874023 37.73364258 79.20874023 C34.76364258 78.71374023 34.76364258 78.71374023 31.73364258 78.20874023 Z " fill="#4B7EBD" transform="translate(13.266357421875,133.791259765625)"/>
<path d="M0 0 C0.91007812 0.00902344 1.82015625 0.01804688 2.7578125 0.02734375 C3.45648438 0.03894531 4.15515625 0.05054688 4.875 0.0625 C5.1225 1.2175 5.37 2.3725 5.625 3.5625 C7.62075786 11.61435562 7.62075786 11.61435562 13.06640625 17.4765625 C13.86949219 17.91742188 14.67257813 18.35828125 15.5 18.8125 C18.70062938 20.69398657 19.69431529 21.52800302 20.90234375 25.1015625 C21.37824925 28.06815588 21.64201846 31.06702309 21.875 34.0625 C27.155 34.3925 32.435 34.7225 37.875 35.0625 C37.854375 33.226875 37.83375 31.39125 37.8125 29.5 C38.25901951 23.73583899 38.25901951 23.73583899 40.8046875 20.953125 C42.39782014 19.81442692 44.01311771 18.70614072 45.6484375 17.62890625 C51.04177725 13.83464443 52.37633926 7.99092915 53.578125 1.78515625 C53.67609375 1.21667969 53.7740625 0.64820313 53.875 0.0625 C59.93261794 -0.35526675 63.06525097 -0.06014203 67.875 4.0625 C69.76241112 7.08407035 70.13041975 9.40062119 70.1496582 12.93530273 C70.15919022 13.899879 70.16872223 14.86445526 70.17854309 15.85826111 C70.17763168 16.89374588 70.17672028 17.92923065 70.17578125 18.99609375 C70.18006638 20.06618179 70.1843515 21.13626984 70.18876648 22.23878479 C70.19450671 24.5007354 70.19501231 26.76270447 70.19067383 29.0246582 C70.18751502 32.48355636 70.21097366 35.94159828 70.23632812 39.40039062 C70.23860126 41.59895725 70.23930455 43.79752618 70.23828125 45.99609375 C70.247491 47.02955429 70.25670074 48.06301483 70.26618958 49.12779236 C70.22569459 55.419247 69.54193463 58.95107626 65.375 63.8125 C62.16441833 66.48798473 58.73540335 66.19919403 54.75463867 66.22363281 C53.49290329 66.23324036 52.23116791 66.2428479 50.93119812 66.25274658 C49.55179017 66.25759503 48.17238012 66.26187374 46.79296875 66.265625 C45.3767344 66.27137949 43.96050007 66.27713719 42.54426575 66.28289795 C39.57434731 66.29340001 36.60445587 66.29924766 33.63452148 66.30273438 C29.8382046 66.3082132 26.04224744 66.33223108 22.24604321 66.36070633 C19.31971715 66.37937798 16.39347691 66.38454073 13.46709633 66.38607025 C12.06811878 66.38908782 10.66914243 66.39708605 9.27022362 66.41025543 C7.3080702 66.42740646 5.34576782 66.42357783 3.38354492 66.41894531 C2.26896408 66.42259094 1.15438324 66.42623657 0.00602722 66.42999268 C-4.4814064 65.90329684 -7.87278203 64.401015 -10.97070312 61.08959961 C-12.78286435 56.33727579 -12.59280124 51.67350515 -12.59375 46.62890625 C-12.60136353 45.51821274 -12.60897705 44.40751923 -12.61682129 43.26316833 C-12.62761342 40.91724899 -12.63047902 38.57128164 -12.62597656 36.2253418 C-12.62500433 32.6409476 -12.66663788 29.0586946 -12.7109375 25.47460938 C-12.71614473 23.19271279 -12.71883269 20.91080878 -12.71875 18.62890625 C-12.73514526 17.55999649 -12.75154053 16.49108673 -12.76843262 15.38978577 C-12.69155006 7.09075494 -12.69155006 7.09075494 -9.71289062 3.40209961 C-6.18031437 0.20845072 -4.64800842 -0.05958985 0 0 Z M21.875 39.0625 C21.875 39.3925 21.875 39.7225 21.875 40.0625 C26.825 40.0625 31.775 40.0625 36.875 40.0625 C36.875 39.7325 36.875 39.4025 36.875 39.0625 C31.925 39.0625 26.975 39.0625 21.875 39.0625 Z M21.875 43.0625 C21.875 43.7225 21.875 44.3825 21.875 45.0625 C26.825 45.0625 31.775 45.0625 36.875 45.0625 C36.875 44.4025 36.875 43.7425 36.875 43.0625 C31.925 43.0625 26.975 43.0625 21.875 43.0625 Z M21.875 47.0625 C21.875 47.7225 21.875 48.3825 21.875 49.0625 C26.825 49.0625 31.775 49.0625 36.875 49.0625 C36.875 48.4025 36.875 47.7425 36.875 47.0625 C31.925 47.0625 26.975 47.0625 21.875 47.0625 Z M26.875 52.0625 C26.875 52.3925 26.875 52.7225 26.875 53.0625 C28.525 53.0625 30.175 53.0625 31.875 53.0625 C31.875 52.7325 31.875 52.4025 31.875 52.0625 C30.225 52.0625 28.575 52.0625 26.875 52.0625 Z " fill="#F2BF1E" transform="translate(111.125,133.9375)"/>
<path d="M0 0 C1.12100098 0.00918457 1.12100098 0.00918457 2.26464844 0.01855469 C8.09101502 0.18342793 12.68354564 1.21432409 17.625 4.4375 C18.98625 5.2728125 18.98625 5.2728125 20.375 6.125 C25.56629112 11.46049365 28.32785256 17.4000423 28.68359375 24.84765625 C28.45060142 35.14591715 24.80619648 42.72366956 19.625 51.4375 C18.965 51.4375 18.305 51.4375 17.625 51.4375 C17.625 52.4275 17.625 53.4175 17.625 54.4375 C18.429375 54.64375 19.23375 54.85 20.0625 55.0625 C22.625 56.4375 22.625 56.4375 23.625 59.3125 C23.625 62.4375 23.625 62.4375 22.625 64.8125 C20.625 66.4375 20.625 66.4375 17.25 66.8125 C13.93993273 66.47007925 11.59635509 65.87815701 8.625 64.4375 C9.615 66.7475 10.605 69.0575 11.625 71.4375 C7.995 71.4375 4.365 71.4375 0.625 71.4375 C1.24375 72.736875 1.8625 74.03625 2.5 75.375 C2.84804687 76.10589844 3.19609375 76.83679688 3.5546875 77.58984375 C4.4934977 79.60082459 4.4934977 79.60082459 6.625 80.4375 C8.35517332 80.56700345 10.08975512 80.63992708 11.82421875 80.68359375 C13.39139648 80.73290039 13.39139648 80.73290039 14.99023438 80.78320312 C17.1854565 80.84385888 19.38077267 80.90121136 21.57617188 80.95507812 C27.27040349 81.14011447 32.24057853 81.53485035 37.625 83.4375 C37.625 84.0975 37.625 84.7575 37.625 85.4375 C39.11 85.9325 39.11 85.9325 40.625 86.4375 C41.87141887 88.93033774 41.77896235 90.66090813 41.81787109 93.45043945 C41.83393402 94.49524979 41.84999695 95.54006012 41.86654663 96.61653137 C41.91093806 101.39693606 41.9520588 106.17720116 41.97509766 110.95776367 C41.99166456 113.48064392 42.01896384 116.00347709 42.05712891 118.52612305 C42.11183189 122.1595907 42.13376249 125.79195753 42.1484375 129.42578125 C42.18244156 131.1166259 42.18244156 131.1166259 42.21713257 132.84162903 C42.19593883 140.68147788 42.19593883 140.68147788 39.21728516 144.62573242 C35.66783702 147.1064684 33.99280606 147.56155864 29.71630859 147.55102539 C28.69540131 147.55094986 27.67449402 147.55087433 26.62265015 147.55079651 C24.96478989 147.54305458 24.96478989 147.54305458 23.2734375 147.53515625 C21.57968491 147.53303383 21.57968491 147.53303383 19.85171509 147.53086853 C16.23445012 147.52525744 12.61724636 147.51270303 9 147.5 C6.55208423 147.49498643 4.10416748 147.49042328 1.65625 147.48632812 C-4.35418766 147.4752844 -10.36458946 147.45853544 -16.375 147.4375 C-12.93853911 144.61831997 -9.79395003 142.54052292 -5.75 140.6875 C5.4741547 135.18573375 15.18021799 127.93806963 21.625 117.0625 C23.33681415 110.85717371 23.8309996 104.41771945 21.25 98.375 C18.12210749 92.99055647 13.55737049 88.1916633 8.625 84.4375 C4.10942626 83.42129103 -0.3442799 83.25036016 -4.9609375 83.12109375 C-6.01361313 83.0899221 -6.01361313 83.0899221 -7.08755493 83.05812073 C-9.30827958 82.99323676 -11.52911276 82.9340277 -13.75 82.875 C-15.26433371 82.83175646 -16.77865683 82.7881404 -18.29296875 82.74414062 C-21.98686655 82.63761914 -25.68088354 82.53618323 -29.375 82.4375 C-29.375 82.1075 -29.375 81.7775 -29.375 81.4375 C-19.805 81.1075 -10.235 80.7775 -0.375 80.4375 C-1.695 77.7975 -3.015 75.1575 -4.375 72.4375 C-8.00153665 71.29793273 -8.00153665 71.29793273 -11.375 71.4375 C-11.045 70.1175 -10.715 68.7975 -10.375 67.4375 C-11.51388672 67.36402344 -11.51388672 67.36402344 -12.67578125 67.2890625 C-13.66964844 67.21429688 -14.66351563 67.13953125 -15.6875 67.0625 C-16.67363281 66.99289063 -17.65976563 66.92328125 -18.67578125 66.8515625 C-21.375 66.4375 -21.375 66.4375 -24.375 64.4375 C-24.80829266 61.6210977 -24.84797299 60.10961951 -23.1875 57.75 C-21.03954233 56.19458238 -18.84220003 55.38642309 -16.375 54.4375 C-17.08076172 53.51130859 -17.08076172 53.51130859 -17.80078125 52.56640625 C-24.28099575 43.75170454 -26.60199434 37.22871609 -26.8125 26.375 C-26.83497803 25.61896484 -26.85745605 24.86292969 -26.88061523 24.08398438 C-26.85282877 17.53492835 -24.93137644 12.47058999 -20.69921875 7.44921875 C-19.88904297 6.79373047 -19.88904297 6.79373047 -19.0625 6.125 C-18.53011719 5.67511719 -17.99773437 5.22523437 -17.44921875 4.76171875 C-11.63599255 1.05045004 -6.78842244 -0.09466536 0 0 Z M-17.375 10.4375 C-22.35917118 16.13755484 -23.56123865 21.97699866 -23.375 29.4375 C-22.38288776 38.92348549 -16.92327861 48.90018756 -9.57421875 54.91015625 C-6.31628474 57.55112242 -6.31628474 57.55112242 -2.375 58.4375 C-3.035 61.4075 -3.695 64.3775 -4.375 67.4375 C-1.405 67.4375 1.565 67.4375 4.625 67.4375 C3.35525028 63.02227891 3.35525028 63.02227891 0.625 59.4375 C1.51251953 58.96570313 1.51251953 58.96570313 2.41796875 58.484375 C12.01434861 53.28698819 18.44355884 47.57734693 22.5 37.1875 C24.5714773 30.1047842 25.07167304 21.79893336 22.0625 14.9375 C18.09647787 8.37352609 12.17766496 5.97748779 5.0546875 3.91796875 C-3.04567179 2.31612921 -11.13475587 5.19002198 -17.375 10.4375 Z M10.625 60.4375 C14.13533129 62.12380119 14.13533129 62.12380119 17.9375 62.0625 C18.494375 61.85625 19.05125 61.65 19.625 61.4375 C19.625 60.7775 19.625 60.1175 19.625 59.4375 C15.84602349 58.3877843 13.97580929 58.32773119 10.625 60.4375 Z M-19.375 60.4375 C-19.375 61.0975 -19.375 61.7575 -19.375 62.4375 C-16.735 62.4375 -14.095 62.4375 -11.375 62.4375 C-11.375 61.7775 -11.375 61.1175 -11.375 60.4375 C-14.015 60.4375 -16.655 60.4375 -19.375 60.4375 Z " fill="#AF2E1D" transform="translate(238.375,51.5625)"/>
<path d="M0 0 C2.75 2.5 2.75 2.5 5 5 C8.01596918 5.11394223 8.01596918 5.11394223 10.9375 4.3125 C14 4 14 4 16.375 5.4375 C16.91125 5.953125 17.4475 6.46875 18 7 C18.969375 6.34 19.93875 5.68 20.9375 5 C25.3257502 2.54152248 29.06282792 2.04777394 34 3 C38.66400033 4.83446167 42.83771783 7.22514522 47 10 C47.54712951 13.89341266 47.17903112 17.82967751 47 21.75 C46.97099609 23.37808594 46.97099609 23.37808594 46.94140625 25.0390625 C46.89886719 26.09351563 46.85632813 27.14796875 46.8125 28.234375 C46.77769531 29.19569336 46.74289063 30.15701172 46.70703125 31.14746094 C45.72509972 35.10909354 44.47273885 37.82770124 41 40 C36.61452916 40.89917124 32.28823203 40.83735009 27.82421875 40.8046875 C26.54392288 40.81839386 25.26362701 40.83210022 23.9445343 40.84622192 C20.55279789 40.88219922 17.16196391 40.88264175 13.77008057 40.87554932 C10.30423935 40.87463514 6.8387341 40.9075126 3.37304688 40.9375 C-3.41808784 40.98941416 -10.20868514 41.00755127 -17 41 C-16.01 40.505 -16.01 40.505 -15 40 C-15.495 38.515 -15.495 38.515 -16 37 C-15.23983391 34.21981212 -14.09600776 31.67425894 -13 29 C-15.64 27.02 -18.28 25.04 -21 23 C-20.70100785 19.41209425 -20.23013399 18.21833224 -17.5625 15.6875 C-15 14 -15 14 -13 14 C-13.13019531 13.39671875 -13.26039062 12.7934375 -13.39453125 12.171875 C-13.81915131 9.71145969 -14.11193371 7.4969827 -14 5 C-9.78792694 0.44640751 -6.11157606 -0.62151621 0 0 Z " fill="#4B7FBF" transform="translate(35,159)"/>
<path d="M0 0 C1.12100098 0.00918457 1.12100098 0.00918457 2.26464844 0.01855469 C8.09101502 0.18342793 12.68354564 1.21432409 17.625 4.4375 C18.98625 5.2728125 18.98625 5.2728125 20.375 6.125 C25.56629112 11.46049365 28.32785256 17.4000423 28.68359375 24.84765625 C28.45060142 35.14591715 24.80619648 42.72366956 19.625 51.4375 C18.965 51.4375 18.305 51.4375 17.625 51.4375 C17.625 52.4275 17.625 53.4175 17.625 54.4375 C18.429375 54.64375 19.23375 54.85 20.0625 55.0625 C22.625 56.4375 22.625 56.4375 23.625 59.3125 C23.625 62.4375 23.625 62.4375 22.625 64.8125 C20.625 66.4375 20.625 66.4375 17.25 66.8125 C13.93993273 66.47007925 11.59635509 65.87815701 8.625 64.4375 C9.615 66.7475 10.605 69.0575 11.625 71.4375 C7.995 71.4375 4.365 71.4375 0.625 71.4375 C1.24375 72.736875 1.8625 74.03625 2.5 75.375 C2.84804687 76.10589844 3.19609375 76.83679688 3.5546875 77.58984375 C4.4934977 79.60082459 4.4934977 79.60082459 6.625 80.4375 C8.37832602 80.57880034 10.13639011 80.66345422 11.89453125 80.71875 C12.94833984 80.75613281 14.00214844 80.79351562 15.08789062 80.83203125 C16.74594727 80.88423828 16.74594727 80.88423828 18.4375 80.9375 C20.6108 81.00665628 22.7839881 81.07944531 24.95703125 81.15625 C25.92358643 81.18654297 26.8901416 81.21683594 27.88598633 81.24804688 C30.54404307 81.43190034 33.02824171 81.85367995 35.625 82.4375 C35.625 82.7675 35.625 83.0975 35.625 83.4375 C27.375 83.4375 19.125 83.4375 10.625 83.4375 C10.295 84.0975 9.965 84.7575 9.625 85.4375 C8.62847412 85.11604004 7.63194824 84.79458008 6.60522461 84.46337891 C2.70103579 83.35188569 -0.99282829 83.12140775 -5.05859375 83.0234375 C-5.75896255 83.00407135 -6.45933136 82.9847052 -7.18092346 82.9647522 C-9.39132981 82.90555109 -11.60178995 82.85881275 -13.8125 82.8125 C-15.32228681 82.77426524 -16.8320531 82.73521042 -18.34179688 82.6953125 C-22.01934199 82.5999003 -25.69704294 82.51565301 -29.375 82.4375 C-29.375 82.1075 -29.375 81.7775 -29.375 81.4375 C-19.805 81.1075 -10.235 80.7775 -0.375 80.4375 C-1.695 77.7975 -3.015 75.1575 -4.375 72.4375 C-8.00153665 71.29793273 -8.00153665 71.29793273 -11.375 71.4375 C-11.045 70.1175 -10.715 68.7975 -10.375 67.4375 C-11.51388672 67.36402344 -11.51388672 67.36402344 -12.67578125 67.2890625 C-13.66964844 67.21429688 -14.66351563 67.13953125 -15.6875 67.0625 C-16.67363281 66.99289063 -17.65976563 66.92328125 -18.67578125 66.8515625 C-21.375 66.4375 -21.375 66.4375 -24.375 64.4375 C-24.80829266 61.6210977 -24.84797299 60.10961951 -23.1875 57.75 C-21.03954233 56.19458238 -18.84220003 55.38642309 -16.375 54.4375 C-17.08076172 53.51130859 -17.08076172 53.51130859 -17.80078125 52.56640625 C-24.28099575 43.75170454 -26.60199434 37.22871609 -26.8125 26.375 C-26.83497803 25.61896484 -26.85745605 24.86292969 -26.88061523 24.08398438 C-26.85282877 17.53492835 -24.93137644 12.47058999 -20.69921875 7.44921875 C-19.88904297 6.79373047 -19.88904297 6.79373047 -19.0625 6.125 C-18.53011719 5.67511719 -17.99773437 5.22523437 -17.44921875 4.76171875 C-11.63599255 1.05045004 -6.78842244 -0.09466536 0 0 Z M-17.375 10.4375 C-22.35917118 16.13755484 -23.56123865 21.97699866 -23.375 29.4375 C-22.38288776 38.92348549 -16.92327861 48.90018756 -9.57421875 54.91015625 C-6.31628474 57.55112242 -6.31628474 57.55112242 -2.375 58.4375 C-3.035 61.4075 -3.695 64.3775 -4.375 67.4375 C-1.405 67.4375 1.565 67.4375 4.625 67.4375 C3.35525028 63.02227891 3.35525028 63.02227891 0.625 59.4375 C1.51251953 58.96570313 1.51251953 58.96570313 2.41796875 58.484375 C12.01434861 53.28698819 18.44355884 47.57734693 22.5 37.1875 C24.5714773 30.1047842 25.07167304 21.79893336 22.0625 14.9375 C18.09647787 8.37352609 12.17766496 5.97748779 5.0546875 3.91796875 C-3.04567179 2.31612921 -11.13475587 5.19002198 -17.375 10.4375 Z M10.625 60.4375 C14.13533129 62.12380119 14.13533129 62.12380119 17.9375 62.0625 C18.494375 61.85625 19.05125 61.65 19.625 61.4375 C19.625 60.7775 19.625 60.1175 19.625 59.4375 C15.84602349 58.3877843 13.97580929 58.32773119 10.625 60.4375 Z M-19.375 60.4375 C-19.375 61.0975 -19.375 61.7575 -19.375 62.4375 C-16.735 62.4375 -14.095 62.4375 -11.375 62.4375 C-11.375 61.7775 -11.375 61.1175 -11.375 60.4375 C-14.015 60.4375 -16.655 60.4375 -19.375 60.4375 Z " fill="#903428" transform="translate(238.375,51.5625)"/>
<path d="M0 0 C0.33 0 0.66 0 1 0 C1 7.59 1 15.18 1 23 C2.32 23.66 3.64 24.32 5 25 C8.47702486 28.39800156 9.85053261 29.76155593 10.4375 34.625 C10 38 10 38 8.96875 39.9453125 C7.85439175 42.30883041 7.88134979 43.6674483 8.0625 46.25 C8.15502663 51.88487152 7.25091316 56.55219845 3.34765625 60.796875 C-3.43713768 66.82142775 -10.39913511 66.47143873 -19.06933594 66.15820312 C-22.34403608 65.88986654 -25.20515436 64.95137332 -28.203125 63.65625 C-30.30738336 62.77129708 -30.30738336 62.77129708 -34 63 C-33.05125 63.20625 -32.1025 63.4125 -31.125 63.625 C-28 65 -28 65 -26.4375 67.8125 C-26 71 -26 71 -26.8125 73.875 C-29.77860026 76.75635454 -31.84063943 76.52212481 -35.84375 76.46875 C-38.47290424 75.89719473 -39.41269582 75.151679 -41 73 C-41.1875 69.8125 -41.1875 69.8125 -41 67 C-41.75925781 66.89042969 -42.51851562 66.78085938 -43.30078125 66.66796875 C-44.29464844 66.50941406 -45.28851563 66.35085937 -46.3125 66.1875 C-47.29863281 66.03667969 -48.28476562 65.88585937 -49.30078125 65.73046875 C-52.20180003 64.94538842 -53.04453614 64.17273762 -55 62 C-56.010625 61.690625 -57.02125 61.38125 -58.0625 61.0625 C-61 60 -61 60 -62.375 57.875 C-62.58125 57.25625 -62.7875 56.6375 -63 56 C-59.99633486 54.99877829 -58.02260407 54.87887989 -54.88598633 54.88647461 C-53.84513382 54.88655014 -52.80428131 54.88662567 -51.73188782 54.88670349 C-50.60993515 54.89186478 -49.48798248 54.89702606 -48.33203125 54.90234375 C-47.18208176 54.9037587 -46.03213226 54.90517365 -44.84733582 54.90663147 C-41.16903092 54.91223571 -37.49078655 54.92478896 -33.8125 54.9375 C-31.32096442 54.94251445 -28.82942789 54.94707745 -26.33789062 54.95117188 C-20.22523971 54.96220653 -14.11262418 54.97894882 -8 55 C-8 55.33 -8 55.66 -8 56 C-23.51 56.33 -39.02 56.66 -55 57 C-54.01 57.33 -53.02 57.66 -52 58 C-52 58.66 -52 59.32 -52 60 C-49.20251159 60.93249614 -47.45679119 61.13476152 -44.5625 61.125 C-43.80066406 61.12757813 -43.03882812 61.13015625 -42.25390625 61.1328125 C-40.04684141 61.00276015 -38.12030724 60.60856199 -36 60 C-36 59.34 -36 58.68 -36 58 C-30.75695157 56.38675433 -27.82163005 57.64739264 -23.1484375 59.9921875 C-17.25669071 62.75595236 -10.78634561 62.99887861 -4.6875 60.8125 C-1.03459402 58.34891225 1.51359013 56.28490015 2.46484375 51.81640625 C2.90029084 48.18370379 3 44.66208754 3 41 C3.66 40.01 4.32 39.02 5 38 C5.41666667 35 5.41666667 35 5 32 C4.01 31.01 3.02 30.02 2 29 C1.67 34.61 1.34 40.22 1 46 C0.67 46 0.34 46 0 46 C0.00523682 45.37955811 0.01047363 44.75911621 0.01586914 44.11987305 C0.03665466 41.30909233 0.04966517 38.49832779 0.0625 35.6875 C0.07506836 34.22280273 0.07506836 34.22280273 0.08789062 32.72851562 C0.09111328 31.79072266 0.09433594 30.85292969 0.09765625 29.88671875 C0.10289307 29.02264404 0.10812988 28.15856934 0.11352539 27.26831055 C0.09335523 24.83271286 0.09335523 24.83271286 -1 22 C-1.01567171 20.2977706 -0.96734569 18.5945339 -0.87890625 16.89453125 C-0.83056641 15.91162109 -0.78222656 14.92871094 -0.73242188 13.91601562 C-0.67634766 12.89185547 -0.62027344 11.86769531 -0.5625 10.8125 C-0.51029297 9.77673828 -0.45808594 8.74097656 -0.40429688 7.67382812 C-0.27461607 5.11557951 -0.13965022 2.55772062 0 0 Z M-36 68 C-36 69.32 -36 70.64 -36 72 C-34.02 72.495 -34.02 72.495 -32 73 C-31.34 71.68 -30.68 70.36 -30 69 C-32.97 68.505 -32.97 68.505 -36 68 Z " fill="#476D9B" transform="translate(81,144)"/>
<path d="M0 0 C0.86931152 0.01047363 1.73862305 0.02094727 2.63427734 0.03173828 C3.57529297 0.03818359 4.51630859 0.04462891 5.48583984 0.05126953 C6.47068359 0.06802734 7.45552734 0.08478516 8.47021484 0.10205078 C9.46279297 0.11107422 10.45537109 0.12009766 11.47802734 0.12939453 C13.93399618 0.15300962 16.38948653 0.18594279 18.84521484 0.22705078 C19.03843857 6.39534665 18.31918158 10.17014508 14.84521484 15.22705078 C12.15300336 18.01064281 9.06304064 20.08183358 5.84521484 22.22705078 C5.04185372 25.10464147 5.04185372 25.10464147 4.65771484 28.35205078 C4.49916016 29.44775391 4.34060547 30.54345703 4.17724609 31.67236328 C4.06767578 32.51541016 3.95810547 33.35845703 3.84521484 34.22705078 C2.17909579 34.26977178 0.51138599 34.2676891 -1.15478516 34.22705078 C-3.01244183 32.3693941 -2.41421144 29.4687219 -2.46728516 26.97705078 C-2.50466797 25.83751953 -2.54205078 24.69798828 -2.58056641 23.52392578 C-2.0778583 19.631397 -0.82551231 18.02947059 1.84521484 15.22705078 C0.19521484 14.89705078 -1.45478516 14.56705078 -3.15478516 14.22705078 C-3.15478516 13.56705078 -3.15478516 12.90705078 -3.15478516 12.22705078 C-1.17478516 11.56705078 0.80521484 10.90705078 2.84521484 10.22705078 C2.84521484 9.56705078 2.84521484 8.90705078 2.84521484 8.22705078 C1.73146484 8.08267578 0.61771484 7.93830078 -0.52978516 7.78955078 C-4.15478516 7.22705078 -4.15478516 7.22705078 -6.15478516 6.22705078 C-3.41684426 0.36003458 -3.41684426 0.36003458 0 0 Z " fill="#DDB022" transform="translate(143.15478515625,133.77294921875)"/>
<path d="M0 0 C6.6 0 13.2 0 20 0 C18 4 18 4 16 7 C18.31 7.33 20.62 7.66 23 8 C23 8.99 23 9.98 23 11 C21.02 11.99 21.02 11.99 19 13 C20.98 13.99 22.96 14.98 25 16 C24.34 16.99 23.68 17.98 23 19 C22.70008931 21.58885171 22.49134775 24.09149082 22.375 26.6875 C22.33632812 27.38939453 22.29765625 28.09128906 22.2578125 28.81445312 C22.1637666 30.54254655 22.0808032 32.27123675 22 34 C20.02 34 18.04 34 16 34 C15.67 29.71 15.34 25.42 15 21 C13.35 20.67 11.7 20.34 10 20 C4.23349175 16.04582292 1.31445451 10.77257038 0 4 C0 2.68 0 1.36 0 0 Z " fill="#DEB123" transform="translate(118,134)"/>
<path d="M0 0 C1.04085251 0.00007553 2.08170502 0.00015106 3.15409851 0.00022888 C4.27605118 0.00539017 5.39800385 0.01055145 6.55395508 0.01586914 C7.70390457 0.01728409 8.85385406 0.01869904 10.03865051 0.02015686 C13.71695541 0.02576111 17.39519978 0.03831435 21.07348633 0.05102539 C23.56502191 0.05603984 26.05655844 0.06060284 28.5480957 0.06469727 C34.66074662 0.07573192 40.77336215 0.09247421 46.88598633 0.11352539 C46.88598633 0.44352539 46.88598633 0.77352539 46.88598633 1.11352539 C31.37598633 1.44352539 15.86598633 1.77352539 -0.11401367 2.11352539 C0.87598633 2.44352539 1.86598633 2.77352539 2.88598633 3.11352539 C2.88598633 3.77352539 2.88598633 4.43352539 2.88598633 5.11352539 C5.68347473 6.04602153 7.42919514 6.24828691 10.32348633 6.23852539 C11.08532227 6.24110352 11.8471582 6.24368164 12.63208008 6.24633789 C14.83914492 6.11628554 16.76567908 5.72208738 18.88598633 5.11352539 C18.88598633 4.45352539 18.88598633 3.79352539 18.88598633 3.11352539 C19.87598633 2.78352539 20.86598633 2.45352539 21.88598633 2.11352539 C21.55598633 2.89727539 21.22598633 3.68102539 20.88598633 4.48852539 C19.76732122 6.95685036 19.76732122 6.95685036 19.88598633 9.11352539 C22.19598633 9.44352539 24.50598633 9.77352539 26.88598633 10.11352539 C28.38943268 13.51606187 29.10093606 15.35293405 28.07348633 18.98852539 C25.10738606 21.86987993 23.0453469 21.6356502 19.04223633 21.58227539 C16.41308209 21.01072012 15.47329051 20.26520439 13.88598633 18.11352539 C13.69848633 14.92602539 13.69848633 14.92602539 13.88598633 12.11352539 C13.12672852 12.00395508 12.3674707 11.89438477 11.58520508 11.78149414 C10.59133789 11.62293945 9.5974707 11.46438477 8.57348633 11.30102539 C7.58735352 11.15020508 6.6012207 10.99938477 5.58520508 10.84399414 C2.6841863 10.05891381 1.84145019 9.28626301 -0.11401367 7.11352539 C-1.62995117 6.64946289 -1.62995117 6.64946289 -3.17651367 6.17602539 C-6.11401367 5.11352539 -6.11401367 5.11352539 -7.48901367 2.98852539 C-7.69526367 2.36977539 -7.90151367 1.75102539 -8.11401367 1.11352539 C-5.11034854 0.11230368 -3.13661774 -0.00759472 0 0 Z M18.88598633 13.11352539 C18.88598633 14.43352539 18.88598633 15.75352539 18.88598633 17.11352539 C20.86598633 17.60852539 20.86598633 17.60852539 22.88598633 18.11352539 C23.54598633 16.79352539 24.20598633 15.47352539 24.88598633 14.11352539 C21.91598633 13.61852539 21.91598633 13.61852539 18.88598633 13.11352539 Z " fill="#4970A0" transform="translate(26.114013671875,198.886474609375)"/>
<path d="M0 0 C2.14762184 3.22143276 2.561068 4.2595467 2 8 C0.4375 9.875 0.4375 9.875 -2 11 C-5.625 10.6875 -5.625 10.6875 -9 10 C-11.19234866 9.80483648 -11.19234866 9.80483648 -13.25 11.625 C-16 13 -16 13 -19.3125 12.1875 C-20.199375 11.795625 -21.08625 11.40375 -22 11 C-22.1875 8.625 -22.1875 8.625 -22 6 C-18.1496895 3.43312633 -16.41430237 4.16711276 -12 5 C-11.3503125 3.7934375 -11.3503125 3.7934375 -10.6875 2.5625 C-7.79128636 -1.83545405 -4.71183475 -1.20302164 0 0 Z M-5 3 C-5.99 3.495 -5.99 3.495 -7 4 C-6.67 4.99 -6.34 5.98 -6 7 C-4.68 6.67 -3.36 6.34 -2 6 C-2 5.34 -2 4.68 -2 4 C-2.99 3.67 -3.98 3.34 -5 3 Z " fill="#456A97" transform="translate(38,214)"/>
<path d="M0 0 C1.04085251 0.00007553 2.08170502 0.00015106 3.15409851 0.00022888 C4.27605118 0.00539017 5.39800385 0.01055145 6.55395508 0.01586914 C7.70390457 0.01728409 8.85385406 0.01869904 10.03865051 0.02015686 C13.71695541 0.02576111 17.39519978 0.03831435 21.07348633 0.05102539 C23.56502191 0.05603984 26.05655844 0.06060284 28.5480957 0.06469727 C34.66074662 0.07573192 40.77336215 0.09247421 46.88598633 0.11352539 C46.88598633 0.44352539 46.88598633 0.77352539 46.88598633 1.11352539 C31.37598633 1.44352539 15.86598633 1.77352539 -0.11401367 2.11352539 C0.87598633 2.44352539 1.86598633 2.77352539 2.88598633 3.11352539 C2.88598633 3.77352539 2.88598633 4.43352539 2.88598633 5.11352539 C6.51598633 5.77352539 10.14598633 6.43352539 13.88598633 7.11352539 C14.21598633 8.43352539 14.54598633 9.75352539 14.88598633 11.11352539 C9.24642032 11.44526457 5.62969356 11.48405421 0.88598633 8.11352539 C-0.33088867 7.63915039 -1.54776367 7.16477539 -2.80151367 6.67602539 C-6.11401367 5.11352539 -6.11401367 5.11352539 -7.55151367 2.92602539 C-7.73713867 2.32790039 -7.92276367 1.72977539 -8.11401367 1.11352539 C-5.11034854 0.11230368 -3.13661774 -0.00759472 0 0 Z " fill="#375476" transform="translate(26.114013671875,198.886474609375)"/>
<path d="M0 0 C0.33 0 0.66 0 1 0 C1 7.59 1 15.18 1 23 C2.32 23.66 3.64 24.32 5 25 C8.47702486 28.39800156 9.85053261 29.76155593 10.4375 34.625 C10.04814623 37.62858622 9.61329469 39.47922704 8 42 C7.01 42 6.02 42 5 42 C4.67 42.99 4.34 43.98 4 45 C3.34 44.67 2.68 44.34 2 44 C3 42 4 40 5 38 C5.33340471 35.04195427 5.33340471 35.04195427 5 32 C4.01 31.01 3.02 30.02 2 29 C1.67 34.61 1.34 40.22 1 46 C0.67 46 0.34 46 0 46 C0.00785522 45.06933716 0.00785522 45.06933716 0.01586914 44.11987305 C0.03665466 41.30909233 0.04966517 38.49832779 0.0625 35.6875 C0.07087891 34.71103516 0.07925781 33.73457031 0.08789062 32.72851562 C0.09111328 31.79072266 0.09433594 30.85292969 0.09765625 29.88671875 C0.10289307 29.02264404 0.10812988 28.15856934 0.11352539 27.26831055 C0.09335523 24.83271286 0.09335523 24.83271286 -1 22 C-1.01567171 20.2977706 -0.96734569 18.5945339 -0.87890625 16.89453125 C-0.83056641 15.91162109 -0.78222656 14.92871094 -0.73242188 13.91601562 C-0.67634766 12.89185547 -0.62027344 11.86769531 -0.5625 10.8125 C-0.51029297 9.77673828 -0.45808594 8.74097656 -0.40429688 7.67382812 C-0.27461607 5.11557951 -0.13965022 2.55772062 0 0 Z " fill="#415D80" transform="translate(81,144)"/>
<path d="M0 0 C0.99 0.33 1.98 0.66 3 1 C2.12195793 5.89487014 -0.75542623 8.02121208 -4.3125 11.25 C-4.89451172 11.80429688 -5.47652344 12.35859375 -6.07617188 12.9296875 C-6.64529297 13.45304687 -7.21441406 13.97640625 -7.80078125 14.515625 C-8.57675659 15.23153809 -8.57675659 15.23153809 -9.3684082 15.96191406 C-11 17 -11 17 -15 17 C-14.15694328 11.51402221 -9.89179942 8.60668591 -6 5 C-5.41992188 4.45085937 -4.83984375 3.90171875 -4.2421875 3.3359375 C-2.6875 1.9375 -2.6875 1.9375 0 0 Z " fill="#AF8F29" transform="translate(173,100)"/>
<path d="M0 0 C1.34242421 2.93342898 2.67234067 5.87236252 4 8.8125 C4.57234375 10.06256836 4.57234375 10.06256836 5.15625 11.33789062 C5.69765625 12.54155273 5.69765625 12.54155273 6.25 13.76953125 C6.58515625 14.50792236 6.9203125 15.24631348 7.265625 16.00708008 C8 18 8 18 8 21 C6.68 21.33 5.36 21.66 4 22 C3.67386719 21.20335938 3.34773438 20.40671875 3.01171875 19.5859375 C0.27387121 12.93278429 0.27387121 12.93278429 -2.8125 6.4375 C-4 4 -4 4 -4 1 C-2 0 -2 0 0 0 Z " fill="#B89526" transform="translate(124,90)"/>
<path d="M0 0 C0 0.99 0 1.98 0 3 C-6.27 5.97 -12.54 8.94 -19 12 C-19.33 10.35 -19.66 8.7 -20 7 C-17.42362412 5.63092584 -14.84031896 4.27971545 -12.25 2.9375 C-11.52039063 2.54755859 -10.79078125 2.15761719 -10.0390625 1.75585938 C-9.33007812 1.39169922 -8.62109375 1.02753906 -7.890625 0.65234375 C-7.24125977 0.31195068 -6.59189453 -0.02844238 -5.92285156 -0.37915039 C-3.58008982 -1.13558044 -2.29543427 -0.78821819 0 0 Z " fill="#B59328" transform="translate(184,115)"/>
<path d="M0 0 C3.31892629 0.58812391 5.02678399 1.62739584 7.453125 3.94140625 C8.071875 4.52470703 8.690625 5.10800781 9.328125 5.70898438 C9.96234375 6.32064453 10.5965625 6.93230469 11.25 7.5625 C11.8996875 8.17802734 12.549375 8.79355469 13.21875 9.42773438 C14.81880287 10.94543158 16.41213644 12.46957115 18 14 C17.01 15.485 17.01 15.485 16 17 C10.36354613 14.49490939 6.25674927 10.36876899 2 6 C1.401875 5.401875 0.80375 4.80375 0.1875 4.1875 C-0.204375 3.795625 -0.59625 3.40375 -1 3 C-0.67 2.01 -0.34 1.02 0 0 Z " fill="#BC9829" transform="translate(106,101)"/>
<path d="M0 0 C0.99 0.33 1.98 0.66 3 1 C2.26951699 5.68803656 0.63363115 9.90885555 -1.0625 14.3125 C-1.34416016 15.05306641 -1.62582031 15.79363281 -1.91601562 16.55664062 C-2.60718575 18.37242655 -3.30311689 20.18639899 -4 22 C-5.32 21.67 -6.64 21.34 -8 21 C-7.28159302 16.76220602 -5.99962229 12.85947049 -4.5625 8.8125 C-4.13066406 7.58144531 -3.69882813 6.35039063 -3.25390625 5.08203125 C-2 2 -2 2 0 0 Z " fill="#C09C28" transform="translate(157,90)"/>
<path d="M0 0 C1.32 0 2.64 0 4 0 C4 7.59 4 15.18 4 23 C2.68 23 1.36 23 0 23 C0 15.41 0 7.82 0 0 Z " fill="#B3901E" transform="translate(138,86)"/>
<path d="M0 0 C2.82343095 1.22629813 5.63128866 2.48484956 8.4375 3.75 C9.23994141 4.09804687 10.04238281 4.44609375 10.86914062 4.8046875 C11.63291016 5.15273437 12.39667969 5.50078125 13.18359375 5.859375 C14.24404907 6.33068848 14.24404907 6.33068848 15.32592773 6.81152344 C17 8 17 8 17.73852539 10.13378906 C17.82481201 10.74963867 17.91109863 11.36548828 18 12 C15 13 15 13 13.09887695 12.28735352 C12.40238037 11.90506592 11.70588379 11.52277832 10.98828125 11.12890625 C9.85229492 10.51499023 9.85229492 10.51499023 8.69335938 9.88867188 C7.90767578 9.45103516 7.12199219 9.01339844 6.3125 8.5625 C5.51521484 8.12873047 4.71792969 7.69496094 3.89648438 7.24804688 C1.92589446 6.17425237 -0.03909927 5.09135818 -2 4 C-1.34 2.68 -0.68 1.36 0 0 Z " fill="#B69327" transform="translate(99,114)"/>
<path d="M0 0 C3.375 -0.125 3.375 -0.125 7 0 C7.66 0.66 8.32 1.32 9 2 C8.625 4.625 8.625 4.625 8 7 C5.36 7 2.72 7 0 7 C-1.125 2.25 -1.125 2.25 0 0 Z " fill="#476E9D" transform="translate(6,221)"/>
<path d="M0 0 C0.99 0.33 1.98 0.66 3 1 C4.45706917 1.11349848 5.91844959 1.17601475 7.37963867 1.20532227 C8.26032516 1.22526749 9.14101166 1.24521271 10.04838562 1.26576233 C10.99534805 1.28247482 11.94231049 1.29918732 12.91796875 1.31640625 C13.89034988 1.33718735 14.86273102 1.35796844 15.86457825 1.37937927 C18.97214665 1.44478748 22.07979985 1.50371929 25.1875 1.5625 C27.29362858 1.60569351 29.39974856 1.64930807 31.50585938 1.69335938 C36.67048591 1.80045999 41.83519778 1.90175219 47 2 C47 2.33 47 2.66 47 3 C30.17 3 13.34 3 -4 3 C-2.68 2.01 -1.36 1.02 0 0 Z " fill="#AD4639" transform="translate(226,196)"/>
<path d="M0 0 C-0.46269985 4.29227942 -2.90159458 6.02922065 -6.0625 8.75 C-6.98160156 9.54921875 -7.90070313 10.3484375 -8.84765625 11.171875 C-9.55792969 11.77515625 -10.26820313 12.3784375 -11 13 C-11.99 12.67 -12.98 12.34 -14 12 C-12.04761147 9.99387601 -10.08862178 7.99507567 -8.125 6 C-7.29162109 5.14148438 -7.29162109 5.14148438 -6.44140625 4.265625 C-2.2265625 0 -2.2265625 0 0 0 Z " fill="#D0A727" transform="translate(176,101)"/>
<path d="M0 0 C-0.875 7.625 -0.875 7.625 -2 11 C-3.32 10.67 -4.64 10.34 -6 10 C-5.4454626 6.67277559 -4.75986957 3.8986087 -3 1 C-1 0 -1 0 0 0 Z " fill="#C6A12C" transform="translate(155,101)"/>
<path d="M0 0 C0 0.99 0 1.98 0 3 C-2.8125 4.5625 -2.8125 4.5625 -6 6 C-6.99 5.67 -7.98 5.34 -9 5 C-5.28508772 -1.58552632 -5.28508772 -1.58552632 0 0 Z " fill="#B6952F" transform="translate(184,115)"/>
<path d="M0 0 C3.29148243 1.13499394 3.9959869 1.99283376 5.75 5.125 C6.1625 6.07375 6.575 7.0225 7 8 C5.1875 8.6875 5.1875 8.6875 3 9 C1.25 7.9375 1.25 7.9375 0 6 C-0.1875 2.8125 -0.1875 2.8125 0 0 Z " fill="#446996" transform="translate(40,211)"/>
<path d="M0 0 C1.98 0 3.96 0 6 0 C6 1.98 6 3.96 6 6 C5.01 6.495 5.01 6.495 4 7 C3.34 6.34 2.68 5.68 2 5 C1.01 4.67 0.02 4.34 -1 4 C-0.67 2.68 -0.34 1.36 0 0 Z " fill="#4974A8" transform="translate(20,219)"/>
<path d="M0 0 C-0.33 0.99 -0.66 1.98 -1 3 C-4.96 3 -8.92 3 -13 3 C-12.67 2.34 -12.34 1.68 -12 1 C-4.35711773 -1.38056989 -4.35711773 -1.38056989 0 0 Z " fill="#4F7CB2" transform="translate(77,207)"/>
<path d="M0 0 C1.21236328 0.01353516 1.21236328 0.01353516 2.44921875 0.02734375 C3.37154297 0.04474609 3.37154297 0.04474609 4.3125 0.0625 C3.3225 0.5575 3.3225 0.5575 2.3125 1.0625 C2.3125 1.7225 2.3125 2.3825 2.3125 3.0625 C-1.3175 3.0625 -4.9475 3.0625 -8.6875 3.0625 C-6.88341097 -0.54567807 -3.60175697 -0.05219938 0 0 Z " fill="#B43625" transform="translate(238.6875,51.9375)"/>
<path d="M0 0 C0.99 0.33 1.98 0.66 3 1 C3.33 3.31 3.66 5.62 4 8 C2.68 8 1.36 8 0 8 C-0.38063221 5.6739143 -0.71269945 3.33944736 -1 1 C-0.67 0.67 -0.34 0.34 0 0 Z " fill="#4E78AC" transform="translate(41,205)"/>
<path d="M0 0 C0.33 0.66 0.66 1.32 1 2 C1.66 2 2.32 2 3 2 C3 3.65 3 5.3 3 7 C2.34 7 1.68 7 1 7 C0.67 7.99 0.34 8.98 0 10 C0 6.7 0 3.4 0 0 Z " fill="#B43B2B" transform="translate(212,73)"/>
<path d="M0 0 C0 1.65 0 3.3 0 5 C-1.65 5.33 -3.3 5.66 -5 6 C-2.84615385 0 -2.84615385 0 0 0 Z " fill="#D6AB26" transform="translate(155,101)"/>
<path d="M0 0 C0 2.83967231 -0.40267181 5.23735711 -1 8 C-1.66 8 -2.32 8 -3 8 C-3.33 6.35 -3.66 4.7 -4 3 C-3.34 3 -2.68 3 -2 3 C-2 2.34 -2 1.68 -2 1 C-1.34 0.67 -0.68 0.34 0 0 Z " fill="#46668D" transform="translate(47,201)"/>
<path d="M0 0 C0.99 0.33 1.98 0.66 3 1 C3 1.99 3 2.98 3 4 C1.68 4.33 0.36 4.66 -1 5 C-1.33 4.34 -1.66 3.68 -2 3 C-1.34 2.01 -0.68 1.02 0 0 Z " fill="#D1A92A" transform="translate(177,116)"/>
<path d="M0 0 C1.98 0.99 1.98 0.99 4 2 C4 3.32 4 4.64 4 6 C3.01 6 2.02 6 1 6 C0.67 4.02 0.34 2.04 0 0 Z " fill="#822B1F" transform="translate(212,69)"/>
</svg>
