<svg width="645" height="811" viewBox="0 0 645 811" fill="none" xmlns="http://www.w3.org/2000/svg">
<g filter="url(#filter0_d_2_3)">
<path d="M487.156 203H330.861C329.088 203 327.448 203.938 326.55 205.466L245.429 343.466C243.469 346.799 245.873 351 249.739 351H406.178C407.929 351 409.553 351.917 410.458 353.416L474.542 459.584C475.447 461.083 477.071 462 478.822 462H635.21C639.088 462 641.489 457.778 639.508 454.445L491.454 205.445C490.552 203.929 488.919 203 487.156 203Z" fill="#666666"/>
<path d="M487.156 203H330.861C329.088 203 327.448 203.938 326.55 205.466L245.429 343.466C243.469 346.799 245.873 351 249.739 351H406.178C407.929 351 409.553 351.917 410.458 353.416L474.542 459.584C475.447 461.083 477.071 462 478.822 462H635.21C639.088 462 641.489 457.778 639.508 454.445L491.454 205.445C490.552 203.929 488.919 203 487.156 203Z" stroke="black"/>
</g>
<g filter="url(#filter1_d_2_3)">
<path fill-rule="evenodd" clip-rule="evenodd" d="M270 44C276.627 44 282 38.6274 282 32C282 25.3726 276.627 20 270 20C263.373 20 258 25.3726 258 32C258 38.6274 263.373 44 270 44ZM270 64C287.673 64 302 49.6731 302 32C302 14.3269 287.673 0 270 0C252.327 0 238 14.3269 238 32C238 37.1936 239.237 42.0982 241.433 46.4351L37.0163 401.016C36.6789 401.005 36.34 401 36 401C18.3269 401 4 415.327 4 433C4 450.673 18.3269 465 36 465C53.6731 465 68 450.673 68 433C68 427.963 66.8363 423.198 64.7631 418.959L269.401 63.9945C269.6 63.9982 269.8 64 270 64ZM48 433C48 439.627 42.6274 445 36 445C29.3726 445 24 439.627 24 433C24 426.373 29.3726 421 36 421C42.6274 421 48 426.373 48 433Z" fill="#B10202"/>
</g>
<g filter="url(#filter2_d_2_3)">
<path fill-rule="evenodd" clip-rule="evenodd" d="M426.305 87.0261C443.373 87.7105 457 101.764 457 119C457 136.673 442.673 151 425 151C407.327 151 393 136.673 393 119C393 113.12 394.586 107.61 397.353 102.875L368.855 53.0032L148.722 430.5H345.576C351.177 421.212 361.363 415 373 415C390.673 415 405 429.327 405 447C405 464.673 390.673 479 373 479C361.363 479 351.177 472.788 345.576 463.5H123.481C109.205 463.5 100.308 448.014 107.5 435.681L353.001 14.6811C360.176 2.37798 377.979 2.45585 385.045 14.8218L426.305 87.0261ZM373 459C379.627 459 385 453.627 385 447C385 440.373 379.627 435 373 435C366.373 435 361 440.373 361 447C361 453.627 366.373 459 373 459ZM437 119C437 125.627 431.627 131 425 131C418.373 131 413 125.627 413 119C413 112.373 418.373 107 425 107C431.627 107 437 112.373 437 119Z" fill="#B10202"/>
</g>
<path d="M183.82 523.18C205.313 523.18 216.06 534.62 216.06 557.5V694H179.66V637.58H153.4V694H117V557.5C117 534.62 127.747 523.18 149.24 523.18H183.82ZM153.4 609.5H179.66V553.08C179.66 551.693 179.14 550.48 178.1 549.44C177.233 548.4 176.107 547.88 174.72 547.88H158.34C156.953 547.88 155.74 548.4 154.7 549.44C153.833 550.48 153.4 551.693 153.4 553.08V609.5ZM305.851 666.44V640.44H340.431V662.28C340.431 685.16 329.685 696.6 308.191 696.6H275.431C253.938 696.6 243.191 685.16 243.191 662.28V557.5C243.191 534.62 253.938 523.18 275.431 523.18H308.191C329.685 523.18 340.431 534.62 340.431 557.5V573.36H305.851V553.08C305.851 551.693 305.331 550.48 304.291 549.44C303.425 548.4 302.298 547.88 300.911 547.88H284.531C283.145 547.88 281.931 548.4 280.891 549.44C280.025 550.48 279.591 551.693 279.591 553.08V666.44C279.591 667.827 280.025 669.04 280.891 670.08C281.931 671.12 283.145 671.64 284.531 671.64H300.911C302.298 671.64 303.425 671.12 304.291 670.08C305.331 669.04 305.851 667.827 305.851 666.44ZM398.413 694H362.013V557.5C362.013 534.62 372.76 523.18 394.253 523.18H413.493C426.147 523.18 435.16 527.34 440.533 535.66C445.56 527.34 454.573 523.18 467.573 523.18H486.813C508.307 523.18 519.053 534.62 519.053 557.5V694H482.653V554.38C482.653 552.993 482.133 551.78 481.093 550.74C480.227 549.7 479.1 549.18 477.713 549.18H463.673C462.287 549.18 461.073 549.7 460.033 550.74C459.167 551.78 458.733 552.993 458.733 554.38V694H422.333V554.38C422.333 552.993 421.813 551.78 420.773 550.74C419.907 549.7 418.78 549.18 417.393 549.18H403.353C401.967 549.18 400.753 549.7 399.713 550.74C398.847 551.78 398.413 552.993 398.413 554.38V694Z" fill="#B10202"/>
<path d="M221.313 800.703C214.868 800.703 210.122 798.901 207.075 795.298C204.028 791.665 202.505 786.333 202.505 779.302V722.656H217.534V778.687C217.534 779.976 217.607 781.221 217.754 782.422C217.9 783.594 218.237 784.561 218.765 785.322C219.292 786.084 220.142 786.465 221.313 786.465C222.515 786.465 223.379 786.099 223.906 785.366C224.434 784.604 224.756 783.623 224.873 782.422C225.02 781.221 225.093 779.976 225.093 778.687V722.656H240.122V779.302C240.122 786.333 238.599 791.665 235.552 795.298C232.505 798.901 227.759 800.703 221.313 800.703ZM269.455 800V722.656H285.363L292.482 759.702V722.656H307.423V800H292.306L284.572 761.328V800H269.455ZM337.679 800V722.656H353.148V786.816H369.056V800H337.679ZM402.036 800L392.5 722.612H407.221L412.89 775.259L417.944 722.612H432.666L423.13 800H402.036Z" fill="black"/>
<defs>
<filter id="filter0_d_2_3" x="240.732" y="203" width="403.486" height="267" filterUnits="userSpaceOnUse" color-interpolation-filters="sRGB">
<feFlood flood-opacity="0" result="BackgroundImageFix"/>
<feColorMatrix in="SourceAlpha" type="matrix" values="0 0 0 0 0 0 0 0 0 0 0 0 0 0 0 0 0 0 127 0" result="hardAlpha"/>
<feOffset dy="4"/>
<feGaussianBlur stdDeviation="2"/>
<feComposite in2="hardAlpha" operator="out"/>
<feColorMatrix type="matrix" values="0 0 0 0 0 0 0 0 0 0 0 0 0 0 0 0 0 0 0.25 0"/>
<feBlend mode="normal" in2="BackgroundImageFix" result="effect1_dropShadow_2_3"/>
<feBlend mode="normal" in="SourceGraphic" in2="effect1_dropShadow_2_3" result="shape"/>
</filter>
<filter id="filter1_d_2_3" x="0" y="0" width="306" height="473" filterUnits="userSpaceOnUse" color-interpolation-filters="sRGB">
<feFlood flood-opacity="0" result="BackgroundImageFix"/>
<feColorMatrix in="SourceAlpha" type="matrix" values="0 0 0 0 0 0 0 0 0 0 0 0 0 0 0 0 0 0 127 0" result="hardAlpha"/>
<feOffset dy="4"/>
<feGaussianBlur stdDeviation="2"/>
<feComposite in2="hardAlpha" operator="out"/>
<feColorMatrix type="matrix" values="0 0 0 0 0 0 0 0 0 0 0 0 0 0 0 0 0 0 0.25 0"/>
<feBlend mode="normal" in2="BackgroundImageFix" result="effect1_dropShadow_2_3"/>
<feBlend mode="normal" in="SourceGraphic" in2="effect1_dropShadow_2_3" result="shape"/>
</filter>
<filter id="filter2_d_2_3" x="100.954" y="5.50037" width="360.046" height="481.5" filterUnits="userSpaceOnUse" color-interpolation-filters="sRGB">
<feFlood flood-opacity="0" result="BackgroundImageFix"/>
<feColorMatrix in="SourceAlpha" type="matrix" values="0 0 0 0 0 0 0 0 0 0 0 0 0 0 0 0 0 0 127 0" result="hardAlpha"/>
<feOffset dy="4"/>
<feGaussianBlur stdDeviation="2"/>
<feComposite in2="hardAlpha" operator="out"/>
<feColorMatrix type="matrix" values="0 0 0 0 0 0 0 0 0 0 0 0 0 0 0 0 0 0 0.25 0"/>
<feBlend mode="normal" in2="BackgroundImageFix" result="effect1_dropShadow_2_3"/>
<feBlend mode="normal" in="SourceGraphic" in2="effect1_dropShadow_2_3" result="shape"/>
</filter>
</defs>
</svg>
